<svg width="1408" height="950" viewBox="0 0 1408 950" fill="none" xmlns="http://www.w3.org/2000/svg">
<mask id="mask0_63_7151" style="mask-type:alpha" maskUnits="userSpaceOnUse" x="-263" y="-283" width="2193" height="1551">
<g opacity="0.12">
<rect x="-43.2386" y="-60.9314" width="109.592" height="109.592" stroke="white" stroke-width="1.1536"/>
<rect x="66.3541" y="-60.9314" width="109.592" height="109.592" stroke="white" stroke-width="1.1536"/>
<rect x="175.946" y="-60.9314" width="109.592" height="109.592" stroke="white" stroke-width="1.1536"/>
<rect x="285.539" y="-60.9314" width="109.592" height="109.592" stroke="white" stroke-width="1.1536"/>
<rect x="395.131" y="-60.9314" width="109.592" height="109.592" stroke="white" stroke-width="1.1536"/>
<rect x="504.723" y="-60.9314" width="109.592" height="109.592" stroke="white" stroke-width="1.1536"/>
<rect x="614.315" y="-60.9314" width="109.592" height="109.592" stroke="white" stroke-width="1.1536"/>
<rect x="723.908" y="-60.9314" width="109.592" height="109.592" stroke="white" stroke-width="1.1536"/>
<rect x="833.501" y="-60.9314" width="109.592" height="109.592" stroke="white" stroke-width="1.1536"/>
<rect x="943.092" y="-60.9314" width="109.592" height="109.592" stroke="white" stroke-width="1.1536"/>
<rect x="1052.68" y="-60.9314" width="109.592" height="109.592" stroke="white" stroke-width="1.1536"/>
<rect x="1162.28" y="-60.9314" width="109.592" height="109.592" stroke="white" stroke-width="1.1536"/>
<rect x="1271.87" y="-60.9314" width="109.592" height="109.592" stroke="white" stroke-width="1.1536"/>
<rect x="1381.46" y="-60.9314" width="109.592" height="109.592" stroke="white" stroke-width="1.1536"/>
<rect x="-43.2386" y="49.8146" width="109.592" height="109.592" stroke="white" stroke-width="1.1536"/>
<rect x="66.3541" y="49.8146" width="109.592" height="109.592" stroke="white" stroke-width="1.1536"/>
<rect x="175.946" y="49.8146" width="109.592" height="109.592" stroke="white" stroke-width="1.1536"/>
<rect x="285.539" y="49.8146" width="109.592" height="109.592" stroke="white" stroke-width="1.1536"/>
<rect x="395.131" y="49.8146" width="109.592" height="109.592" stroke="white" stroke-width="1.1536"/>
<rect x="504.723" y="49.8146" width="109.592" height="109.592" stroke="white" stroke-width="1.1536"/>
<rect x="614.315" y="49.8146" width="109.592" height="109.592" stroke="white" stroke-width="1.1536"/>
<rect x="723.908" y="49.8146" width="109.592" height="109.592" stroke="white" stroke-width="1.1536"/>
<rect x="833.501" y="49.8146" width="109.592" height="109.592" stroke="white" stroke-width="1.1536"/>
<rect x="943.092" y="49.8146" width="109.592" height="109.592" stroke="white" stroke-width="1.1536"/>
<rect x="1052.68" y="49.8146" width="109.592" height="109.592" stroke="white" stroke-width="1.1536"/>
<rect x="1162.28" y="49.8146" width="109.592" height="109.592" stroke="white" stroke-width="1.1536"/>
<rect x="1271.87" y="49.8146" width="109.592" height="109.592" stroke="white" stroke-width="1.1536"/>
<rect x="1381.46" y="49.8146" width="109.592" height="109.592" stroke="white" stroke-width="1.1536"/>
<rect x="-43.2386" y="160.56" width="109.592" height="109.592" stroke="white" stroke-width="1.1536"/>
<rect x="66.3541" y="160.56" width="109.592" height="109.592" stroke="white" stroke-width="1.1536"/>
<rect x="175.946" y="160.56" width="109.592" height="109.592" stroke="white" stroke-width="1.1536"/>
<rect x="284.962" y="159.984" width="110.746" height="110.746" fill="white" fill-opacity="0.13"/>
<rect x="395.131" y="160.56" width="109.592" height="109.592" stroke="white" stroke-width="1.1536"/>
<rect x="504.723" y="160.56" width="109.592" height="109.592" stroke="white" stroke-width="1.1536"/>
<rect x="614.315" y="160.56" width="109.592" height="109.592" stroke="white" stroke-width="1.1536"/>
<rect x="723.908" y="160.56" width="109.592" height="109.592" stroke="white" stroke-width="1.1536"/>
<rect x="833.501" y="160.56" width="109.592" height="109.592" stroke="white" stroke-width="1.1536"/>
<rect x="943.092" y="160.56" width="109.592" height="109.592" stroke="white" stroke-width="1.1536"/>
<rect x="1052.11" y="159.984" width="110.746" height="110.746" fill="white" fill-opacity="0.13"/>
<rect x="1162.28" y="160.56" width="109.592" height="109.592" stroke="white" stroke-width="1.1536"/>
<rect x="1271.29" y="159.984" width="110.746" height="110.746" fill="white" fill-opacity="0.13"/>
<rect x="1381.46" y="160.56" width="109.592" height="109.592" stroke="white" stroke-width="1.1536"/>
<rect x="-43.2386" y="271.306" width="109.592" height="109.592" stroke="white" stroke-width="1.1536"/>
<rect x="66.3541" y="271.306" width="109.592" height="109.592" stroke="white" stroke-width="1.1536"/>
<rect x="175.369" y="270.73" width="110.746" height="110.746" fill="white" fill-opacity="0.13"/>
<rect x="285.539" y="271.306" width="109.592" height="109.592" stroke="white" stroke-width="1.1536"/>
<rect x="394.554" y="270.73" width="110.746" height="110.746" fill="white" fill-opacity="0.13"/>
<rect x="504.723" y="271.306" width="109.592" height="109.592" stroke="white" stroke-width="1.1536"/>
<rect x="614.315" y="271.306" width="109.592" height="109.592" stroke="white" stroke-width="1.1536"/>
<rect x="723.908" y="271.306" width="109.592" height="109.592" stroke="white" stroke-width="1.1536"/>
<rect x="833.501" y="271.306" width="109.592" height="109.592" stroke="white" stroke-width="1.1536"/>
<rect x="942.516" y="270.73" width="110.746" height="110.746" fill="white" fill-opacity="0.13"/>
<rect x="1052.68" y="271.306" width="109.592" height="109.592" stroke="white" stroke-width="1.1536"/>
<rect x="1161.7" y="270.73" width="110.746" height="110.746" fill="white" fill-opacity="0.13"/>
<rect x="1271.87" y="271.306" width="109.592" height="109.592" stroke="white" stroke-width="1.1536"/>
<rect x="1381.46" y="271.306" width="109.592" height="109.592" stroke="white" stroke-width="1.1536"/>
<rect x="-43.2386" y="382.052" width="109.592" height="109.592" stroke="white" stroke-width="1.1536"/>
<rect x="65.7773" y="381.476" width="110.746" height="110.746" fill="white" fill-opacity="0.13"/>
<rect x="175.946" y="382.052" width="109.592" height="109.592" stroke="white" stroke-width="1.1536"/>
<rect x="284.962" y="381.476" width="110.746" height="110.746" fill="white" fill-opacity="0.13"/>
<rect x="395.131" y="382.052" width="109.592" height="109.592" stroke="white" stroke-width="1.1536"/>
<rect x="504.723" y="382.052" width="109.592" height="109.592" stroke="white" stroke-width="1.1536"/>
<rect x="614.315" y="382.052" width="109.592" height="109.592" stroke="white" stroke-width="1.1536"/>
<rect x="723.908" y="382.052" width="109.592" height="109.592" stroke="white" stroke-width="1.1536"/>
<rect x="833.501" y="382.052" width="109.592" height="109.592" stroke="white" stroke-width="1.1536"/>
<rect x="943.092" y="382.052" width="109.592" height="109.592" stroke="white" stroke-width="1.1536"/>
<rect x="1052.11" y="381.476" width="110.746" height="110.746" fill="white" fill-opacity="0.13"/>
<rect x="1162.28" y="382.052" width="109.592" height="109.592" stroke="white" stroke-width="1.1536"/>
<rect x="1271.87" y="382.052" width="109.592" height="109.592" stroke="white" stroke-width="1.1536"/>
<rect x="1381.46" y="382.052" width="109.592" height="109.592" stroke="white" stroke-width="1.1536"/>
<rect x="-43.2386" y="492.798" width="109.592" height="109.592" stroke="white" stroke-width="1.1536"/>
<rect x="66.3541" y="492.798" width="109.592" height="109.592" stroke="white" stroke-width="1.1536"/>
<rect x="175.946" y="492.798" width="109.592" height="109.592" stroke="white" stroke-width="1.1536"/>
<rect x="285.539" y="492.798" width="109.592" height="109.592" stroke="white" stroke-width="1.1536"/>
<rect x="395.131" y="492.798" width="109.592" height="109.592" stroke="white" stroke-width="1.1536"/>
<rect x="504.723" y="492.798" width="109.592" height="109.592" stroke="white" stroke-width="1.1536"/>
<rect x="614.315" y="492.798" width="109.592" height="109.592" stroke="white" stroke-width="1.1536"/>
<rect x="723.908" y="492.798" width="109.592" height="109.592" stroke="white" stroke-width="1.1536"/>
<rect x="833.501" y="492.798" width="109.592" height="109.592" stroke="white" stroke-width="1.1536"/>
<rect x="943.092" y="492.798" width="109.592" height="109.592" stroke="white" stroke-width="1.1536"/>
<rect x="1052.68" y="492.798" width="109.592" height="109.592" stroke="white" stroke-width="1.1536"/>
<rect x="1162.28" y="492.798" width="109.592" height="109.592" stroke="white" stroke-width="1.1536"/>
<rect x="1271.87" y="492.798" width="109.592" height="109.592" stroke="white" stroke-width="1.1536"/>
<rect x="1381.46" y="492.798" width="109.592" height="109.592" stroke="white" stroke-width="1.1536"/>
<rect x="-43.2386" y="603.544" width="109.592" height="109.592" stroke="white" stroke-width="1.1536"/>
<rect x="66.3541" y="603.544" width="109.592" height="109.592" stroke="white" stroke-width="1.1536"/>
<rect x="175.946" y="603.544" width="109.592" height="109.592" stroke="white" stroke-width="1.1536"/>
<rect x="285.539" y="603.544" width="109.592" height="109.592" stroke="white" stroke-width="1.1536"/>
<rect x="395.131" y="603.544" width="109.592" height="109.592" stroke="white" stroke-width="1.1536"/>
<rect x="504.723" y="603.544" width="109.592" height="109.592" stroke="white" stroke-width="1.1536"/>
<rect x="614.315" y="603.544" width="109.592" height="109.592" stroke="white" stroke-width="1.1536"/>
<rect x="723.908" y="603.544" width="109.592" height="109.592" stroke="white" stroke-width="1.1536"/>
<rect x="833.501" y="603.544" width="109.592" height="109.592" stroke="white" stroke-width="1.1536"/>
<rect x="942.516" y="602.967" width="110.746" height="110.746" fill="white" fill-opacity="0.13"/>
<rect x="1052.68" y="603.544" width="109.592" height="109.592" stroke="white" stroke-width="1.1536"/>
<rect x="1162.28" y="603.544" width="109.592" height="109.592" stroke="white" stroke-width="1.1536"/>
<rect x="1271.87" y="603.544" width="109.592" height="109.592" stroke="white" stroke-width="1.1536"/>
<rect x="1381.46" y="603.544" width="109.592" height="109.592" stroke="white" stroke-width="1.1536"/>
<rect x="-43.2386" y="714.29" width="109.592" height="109.592" stroke="white" stroke-width="1.1536"/>
<rect x="66.3541" y="714.29" width="109.592" height="109.592" stroke="white" stroke-width="1.1536"/>
<rect x="175.946" y="714.29" width="109.592" height="109.592" stroke="white" stroke-width="1.1536"/>
<rect x="285.539" y="714.29" width="109.592" height="109.592" stroke="white" stroke-width="1.1536"/>
<rect x="395.131" y="714.29" width="109.592" height="109.592" stroke="white" stroke-width="1.1536"/>
<rect x="504.723" y="714.29" width="109.592" height="109.592" stroke="white" stroke-width="1.1536"/>
<rect x="614.315" y="714.29" width="109.592" height="109.592" stroke="white" stroke-width="1.1536"/>
<rect x="723.908" y="714.29" width="109.592" height="109.592" stroke="white" stroke-width="1.1536"/>
<rect x="832.924" y="713.713" width="110.746" height="110.746" fill="white" fill-opacity="0.13"/>
<rect x="943.092" y="714.29" width="109.592" height="109.592" stroke="white" stroke-width="1.1536"/>
<rect x="1052.11" y="713.713" width="110.746" height="110.746" fill="white" fill-opacity="0.13"/>
<rect x="1162.28" y="714.29" width="109.592" height="109.592" stroke="white" stroke-width="1.1536"/>
<rect x="1271.29" y="713.713" width="110.746" height="110.746" fill="white" fill-opacity="0.13"/>
<rect x="1381.46" y="714.29" width="109.592" height="109.592" stroke="white" stroke-width="1.1536"/>
<rect x="-43.2386" y="825.036" width="109.592" height="109.592" stroke="white" stroke-width="1.1536"/>
<rect x="66.3541" y="825.036" width="109.592" height="109.592" stroke="white" stroke-width="1.1536"/>
<rect x="175.946" y="825.036" width="109.592" height="109.592" stroke="white" stroke-width="1.1536"/>
<rect x="285.539" y="825.036" width="109.592" height="109.592" stroke="white" stroke-width="1.1536"/>
<rect x="395.131" y="825.036" width="109.592" height="109.592" stroke="white" stroke-width="1.1536"/>
<rect x="504.723" y="825.036" width="109.592" height="109.592" stroke="white" stroke-width="1.1536"/>
<rect x="614.315" y="825.036" width="109.592" height="109.592" stroke="white" stroke-width="1.1536"/>
<rect x="723.331" y="824.459" width="110.746" height="110.746" fill="white" fill-opacity="0.13"/>
<rect x="833.501" y="825.036" width="109.592" height="109.592" stroke="white" stroke-width="1.1536"/>
<rect x="942.516" y="824.459" width="110.746" height="110.746" fill="white" fill-opacity="0.13"/>
<rect x="1052.68" y="825.036" width="109.592" height="109.592" stroke="white" stroke-width="1.1536"/>
<rect x="1161.7" y="824.459" width="110.746" height="110.746" fill="white" fill-opacity="0.13"/>
<rect x="1271.87" y="825.036" width="109.592" height="109.592" stroke="white" stroke-width="1.1536"/>
<rect x="1381.46" y="825.036" width="109.592" height="109.592" stroke="white" stroke-width="1.1536"/>
<rect x="-43.2386" y="935.782" width="109.592" height="109.592" stroke="white" stroke-width="1.1536"/>
<rect x="66.3541" y="935.782" width="109.592" height="109.592" stroke="white" stroke-width="1.1536"/>
<rect x="175.946" y="935.782" width="109.592" height="109.592" stroke="white" stroke-width="1.1536"/>
<rect x="285.539" y="935.782" width="109.592" height="109.592" stroke="white" stroke-width="1.1536"/>
<rect x="395.131" y="935.782" width="109.592" height="109.592" stroke="white" stroke-width="1.1536"/>
<rect x="504.723" y="935.782" width="109.592" height="109.592" stroke="white" stroke-width="1.1536"/>
<rect x="614.315" y="935.782" width="109.592" height="109.592" stroke="white" stroke-width="1.1536"/>
<rect x="723.908" y="935.782" width="109.592" height="109.592" stroke="white" stroke-width="1.1536"/>
<rect x="832.924" y="935.205" width="110.746" height="110.746" fill="white" fill-opacity="0.13"/>
<rect x="943.092" y="935.782" width="109.592" height="109.592" stroke="white" stroke-width="1.1536"/>
<rect x="1052.11" y="935.205" width="110.746" height="110.746" fill="white" fill-opacity="0.13"/>
<rect x="1162.28" y="935.782" width="109.592" height="109.592" stroke="white" stroke-width="1.1536"/>
<rect x="1271.87" y="935.782" width="109.592" height="109.592" stroke="white" stroke-width="1.1536"/>
<rect x="1381.46" y="935.782" width="109.592" height="109.592" stroke="white" stroke-width="1.1536"/>
</g>
</mask>
<g mask="url(#mask0_63_7151)">
<g filter="url(#filter0_f_63_7151)">
<ellipse cx="394.692" cy="364.784" rx="264.661" ry="190.017" transform="rotate(34.13 394.692 364.784)" fill="#D9D9D9"/>
</g>
<g filter="url(#filter1_f_63_7151)">
<ellipse cx="1065.35" cy="811.591" rx="252.123" ry="183.841" transform="rotate(30.1452 1065.35 811.591)" fill="#D9D9D9"/>
</g>
<g filter="url(#filter2_f_63_7151)">
<ellipse cx="1140.4" cy="283.986" rx="220.175" ry="157.363" transform="rotate(-15 1140.4 283.986)" fill="#D9D9D9"/>
</g>
</g>
<defs>
<filter id="filter0_f_63_7151" x="94.9941" y="92.4722" width="599.395" height="544.624" filterUnits="userSpaceOnUse" color-interpolation-filters="sRGB">
<feFlood flood-opacity="0" result="BackgroundImageFix"/>
<feBlend mode="normal" in="SourceGraphic" in2="BackgroundImageFix" result="shape"/>
<feGaussianBlur stdDeviation="28" result="effect1_foregroundBlur_63_7151"/>
</filter>
<filter id="filter1_f_63_7151" x="772.52" y="552.348" width="585.655" height="518.488" filterUnits="userSpaceOnUse" color-interpolation-filters="sRGB">
<feFlood flood-opacity="0" result="BackgroundImageFix"/>
<feBlend mode="normal" in="SourceGraphic" in2="BackgroundImageFix" result="shape"/>
<feGaussianBlur stdDeviation="28" result="effect1_foregroundBlur_63_7151"/>
</filter>
<filter id="filter2_f_63_7151" x="803.823" y="1.6106" width="673.154" height="564.751" filterUnits="userSpaceOnUse" color-interpolation-filters="sRGB">
<feFlood flood-opacity="0" result="BackgroundImageFix"/>
<feBlend mode="normal" in="SourceGraphic" in2="BackgroundImageFix" result="shape"/>
<feGaussianBlur stdDeviation="60" result="effect1_foregroundBlur_63_7151"/>
</filter>
</defs>
</svg>
